<svg xmlns="http://www.w3.org/2000/svg" viewBox="0 0 37.43 31.86"><defs><style>.cls-1{fill:#ff4800;}</style></defs><title>Varlık 1</title><g id="katman_2" data-name="katman 2"><g id="Layer_1" data-name="Layer 1"><path class="cls-1" d="M23,3.87a8.88,8.88,0,0,1,3.54-.75,8.28,8.28,0,0,1,2,.25A.38.38,0,0,0,29,3l-.09-.73h0C28.85,1,27.45,0,25.77,0s-3.38,1-3.38,2.32l.08,1.22A.38.38,0,0,0,23,3.87Z"/><path class="cls-1" d="M37.37,25l0-.22s0,0,0-.05l-1.41-7.21a5.41,5.41,0,0,0-3.16-4l-.68-5.24c0-2.22-2.51-4-5.53-4s-5.88,1.8-5.88,4c0,.1,0,.22,0,.33l0,.56a6.08,6.08,0,0,0-2-.33,5.94,5.94,0,0,0-2,.34l0-.57a1.83,1.83,0,0,0,0-.33c0-2.23-2.87-4-5.88-4S5.35,6,5.35,8.24l-.67,5.24a5.35,5.35,0,0,0-3.16,4L.1,24.7s0,0,0,.05l0,.22h0a5.36,5.36,0,0,0,0,.7c0,3.42,3.58,6.19,8,6.19s8-2.77,8-6.19h0V22.83a6.48,6.48,0,0,0,2.74.58,6.62,6.62,0,0,0,2.73-.57v2.83h0c0,3.42,3.58,6.19,8,6.19s8-2.77,8-6.19C37.42,25.43,37.4,25.2,37.37,25ZM8,29.63c-3.12,0-5.76-1.82-5.76-4s2.64-4,5.76-4,5.76,1.82,5.76,4S11.11,29.63,8,29.63Zm10.73-8.19c-1.31,0-2.38-.74-2.38-1.65s1.07-1.66,2.38-1.66,2.38.74,2.38,1.66S20,21.44,18.72,21.44Zm10.71,8.19c-3.12,0-5.76-1.82-5.76-4s2.64-4,5.76-4,5.76,1.82,5.76,4S32.55,29.63,29.43,29.63Z"/><path class="cls-1" d="M8.86,3.37a8.26,8.26,0,0,1,2-.25,8.89,8.89,0,0,1,3.55.75.37.37,0,0,0,.52-.32L15,2.32C15,1,13.37,0,11.64,0S8.57,1,8.48,2.22h0L8.39,3A.38.38,0,0,0,8.86,3.37Z"/></g></g></svg>