<svg xmlns="http://www.w3.org/2000/svg" viewBox="0 0 25.34 16.64"><defs><style>.cls-1{fill:#d1d1d1;}</style></defs><title>Varlık 2</title><g id="katman_2" data-name="katman 2"><g id="Layer_1" data-name="Layer 1"><path class="cls-1" d="M9,7.12A.66.66,0,0,0,8.5,6H8.06a.6.6,0,0,1-.6-.6V4.94A.74.74,0,0,0,7.3,4.5l0,0a.68.68,0,0,0-.94,0,.64.64,0,0,0-.19.47v.45a.61.61,0,0,1-.6.6H5.09a.8.8,0,0,0-.44.15l0,0a.64.64,0,0,0,0,.91.64.64,0,0,0,.47.19h.45a.6.6,0,0,1,.6.6v.44A.65.65,0,0,0,6.8,9a.65.65,0,0,0,.66-.66V7.91a.6.6,0,0,1,.6-.6H8.5A.65.65,0,0,0,9,7.12Z"/><path class="cls-1" d="M25.32,11.51a23.42,23.42,0,0,0-.69-4.58,17.53,17.53,0,0,0-1.42-3.85C21-.8,18.6-.2,15.73.56a21.57,21.57,0,0,1-2.9.57h-.32A21.27,21.27,0,0,1,9.61.56C6.74-.17,4.34-.8,2.13,3.11A16.29,16.29,0,0,0,.71,7,24.23,24.23,0,0,0,0,11.54a8.59,8.59,0,0,0,.45,3.6A2.37,2.37,0,0,0,2,16.56a3.11,3.11,0,0,0,2-.22,15.06,15.06,0,0,0,4-2.87,7,7,0,0,1,4.64-1.42,7,7,0,0,1,4.64,1.42,15.06,15.06,0,0,0,4,2.87,3.31,3.31,0,0,0,2,.22,2.36,2.36,0,0,0,1.51-1.45A8.31,8.31,0,0,0,25.32,11.51Zm-9.4-6a1.11,1.11,0,1,1-1.11,1.11A1.11,1.11,0,0,1,15.92,5.54Zm3.34-1.13a1.1,1.1,0,1,1-1.1-1.11A1.1,1.1,0,0,1,19.26,4.41Zm-2.2,4.48a1.1,1.1,0,1,1,1.1,1.1A1.11,1.11,0,0,1,17.06,8.89ZM20.4,7.75a1.11,1.11,0,0,1,0-2.21,1.11,1.11,0,1,1,0,2.21ZM5.5,9.62A1.72,1.72,0,0,1,5,8.48,1.76,1.76,0,0,1,3.8,7.94a1.88,1.88,0,0,1-.54-1.29,1.79,1.79,0,0,1,.54-1.3l0,0A1.92,1.92,0,0,1,5,4.82,1.87,1.87,0,0,1,5.5,3.68a1.9,1.9,0,0,1,1.3-.53,1.8,1.8,0,0,1,1.29.53l0,0a1.79,1.79,0,0,1,.51,1.11,2,2,0,0,1,1.14.53,1.9,1.9,0,0,1,.53,1.3,1.8,1.8,0,0,1-.53,1.29,1.69,1.69,0,0,1-1.14.54,1.91,1.91,0,0,1-.54,1.14,1.87,1.87,0,0,1-1.29.53A1.82,1.82,0,0,1,5.5,9.62Z"/></g></g></svg>