<svg xmlns="http://www.w3.org/2000/svg" viewBox="0 0 16.19 25.46"><defs><style>.cls-1{fill:#d1d1d1;}</style></defs><title>Varlık 7</title><g id="katman_2" data-name="katman 2"><g id="Layer_1" data-name="Layer 1"><path class="cls-1" d="M12.82,13.49a1.64,1.64,0,0,1,.43-.37c.61-.37.66-.71.6-.93s-.55-.56-1.21-.56a4,4,0,0,0-1.33.24,5.17,5.17,0,0,0,1.32-1.55,1.85,1.85,0,0,0,1.38.6,1.76,1.76,0,0,0,1.81-1.7V6.46a1.73,1.73,0,0,0-1.61-1.69A6.13,6.13,0,0,0,8.14,0,6.15,6.15,0,0,0,2,4.85,1.71,1.71,0,0,0,.83,6.46V9.22a1.75,1.75,0,0,0,1.8,1.7,1.93,1.93,0,0,0,1-.29A5.1,5.1,0,0,0,4.83,11.9a4.35,4.35,0,0,0-1.43-.27c-.66,0-1.11.21-1.21.56s0,.56.6.93a1.54,1.54,0,0,1,.47.43A6.17,6.17,0,0,0,0,19v4.78L0,24l.47.15a27.1,27.1,0,0,0,8.1,1.3,16.59,16.59,0,0,0,7.11-1.34L16,24h.22V19A6.15,6.15,0,0,0,12.82,13.49ZM8.14.6a5.52,5.52,0,0,1,5.43,4.21,1.83,1.83,0,0,0-.87.49A5.25,5.25,0,0,0,3.57,5a1.86,1.86,0,0,0-.85-.24A5.51,5.51,0,0,1,8.14.6Zm-3.7,7V6.46A1.38,1.38,0,0,0,4.36,6a1.46,1.46,0,0,1,1.23-.67H10.7a1.45,1.45,0,1,1,0,2.9h-1A1.45,1.45,0,0,1,8.26,6.74a1.38,1.38,0,0,1,.16-.64H7.87A1.38,1.38,0,0,1,8,6.74,1.45,1.45,0,0,1,6.58,8.19h-1A1.46,1.46,0,0,1,4.44,7.63Zm5.31,5.09-.14.11H9.4Zm-3.06.11H6.42l-.18-.15Zm5.62.55c-.77.35-3.87,2.35-3.93,11.59H7.77C7.7,14.88,4,13.42,3.69,13.32A1.75,1.75,0,0,0,3,12.71c-.34-.22-.39-.36-.38-.39s.22-.2.74-.2a4.35,4.35,0,0,1,2.77,1.14l.07.06H9.79l.07-.06a4.37,4.37,0,0,1,2.78-1.14c.52,0,.72.15.74.2s0,.17-.39.39A1.75,1.75,0,0,0,12.31,13.38Z"/></g></g></svg>