<svg xmlns="http://www.w3.org/2000/svg" viewBox="0 0 25.73 24.81"><defs><style>.cls-1{fill:#231f20;}.cls-2{fill:#f27503;}.cls-3{fill:#d35c02;}</style></defs><title>Varlık 3</title><g id="katman_2" data-name="katman 2"><g id="Layer_1" data-name="Layer 1"><path class="cls-1" d="M12.42,4.81s.33-2.64,1.6-3.68A4.65,4.65,0,0,1,16.19,0l1.43,1.51S13.93,2.64,13.7,6.06,12.42,4.81,12.42,4.81Z"/><path class="cls-2" d="M25.19,10.31a11.81,11.81,0,0,1-1.84,10.45,9.38,9.38,0,0,1-3,2.79,6.6,6.6,0,0,1-3.42,1,5.75,5.75,0,0,1-1.81-.29l-.21-.06-.17.12a3.25,3.25,0,0,1-3.6-.06L11,24.12l-.2.06a5.72,5.72,0,0,1-2,.35c-2.32,0-4.67-1.39-6.42-3.8A11.91,11.91,0,0,1,.51,10.28a6.82,6.82,0,0,1,6.89-5,11.7,11.7,0,0,1,3.39.53l.2.06.18-.12a3.25,3.25,0,0,1,3.6-.06l.17.12.18-.06a11.09,11.09,0,0,1,3.18-.47A6.78,6.78,0,0,1,25.19,10.31Z"/><path class="cls-3" d="M14.77,24.33l.17-.12-.23.15A.1.1,0,0,0,14.77,24.33Z"/><path class="cls-3" d="M14.94,24.21l.21.06a6.58,6.58,0,0,0,1.81.29,6.81,6.81,0,0,0,3.42-1,10.48,10.48,0,0,0,3-2.79,11.91,11.91,0,0,0,1.84-10.45,6.82,6.82,0,0,0-6.89-5,10.89,10.89,0,0,0-3.18.47l-.21.06a11.73,11.73,0,0,1,5.23,3.89C22.19,12.8,23.35,20.76,14.94,24.21Z"/><polygon class="cls-1" points="19.1 19.22 18.09 18.15 14.79 20.32 12.87 18.71 10.93 20.32 7.64 18.15 6.63 19.22 3.3 14.14 6.63 16.25 7.64 15.18 10.93 17.35 12.87 15.74 14.79 17.35 18.09 15.18 19.1 16.25 22.43 14.14 19.1 19.22"/><ellipse class="cls-1" cx="8.32" cy="11.58" rx="1.51" ry="2.38"/><ellipse class="cls-1" cx="17.65" cy="11.58" rx="1.51" ry="2.38"/></g></g></svg>